<?xml version="1.0" standalone="no"?>
<!DOCTYPE svg PUBLIC "-//W3C//DTD SVG 20010904//EN"
 "http://www.w3.org/TR/2001/REC-SVG-20010904/DTD/svg10.dtd">
<svg version="1.0" xmlns="http://www.w3.org/2000/svg"
 width="1500.000000pt" height="1500.000000pt" viewBox="0 0 1500.000000 1500.000000"
 preserveAspectRatio="xMidYMid meet">
<metadata>
Created by potrace 1.14, written by Peter Selinger 2001-2017
</metadata>
<g transform="translate(0.000000,1500.000000) scale(0.100000,-0.100000)"
fill="#000000" stroke="none">
<path d="M1540 12395 c-562 -78 -1041 -408 -1321 -910 -104 -186 -183 -431
-206 -641 -10 -90 -10 -6598 0 -6689 4 -38 12 -88 17 -110 5 -22 9 -41 9 -43
1 -53 90 -320 138 -416 185 -368 474 -656 828 -826 85 -41 240 -100 302 -115
10 -3 59 -15 108 -27 l90 -22 5965 -3 c3365 -1 5985 2 6010 6 25 5 62 12 84
15 21 4 41 8 45 10 3 2 22 7 41 10 113 17 395 138 536 228 139 90 303 235 409
362 164 198 304 477 361 721 45 195 43 39 41 3580 -2 1843 -6 3366 -10 3385
-56 249 -90 356 -169 514 -106 214 -248 396 -443 566 -185 161 -453 300 -704
365 -55 14 -69 17 -141 29 -19 3 -48 9 -65 13 -16 4 -2685 8 -5930 9 -4816 2
-5917 0 -5995 -11z m11970 -383 c123 -29 115 -27 185 -52 404 -143 726 -470
865 -878 17 -50 33 -102 35 -114 3 -13 7 -34 10 -48 11 -59 17 -100 23 -180 9
-113 7 -6469 -2 -6540 -62 -480 -346 -884 -775 -1100 -114 -57 -265 -105 -401
-128 -112 -19 -223 -20 -5947 -20 -3208 0 -5851 4 -5875 8 -24 5 -77 14 -118
20 -347 57 -695 290 -907 610 -102 152 -188 366 -209 520 -2 14 -7 54 -12 90
-11 74 -9 6564 1 6620 4 19 9 49 12 65 12 73 18 96 50 192 147 441 512 788
954 909 53 15 112 29 131 31 19 3 53 9 75 13 22 4 2688 7 5925 6 l5885 -1 95
-23z"/>
<path d="M1755 10916 c-139 -44 -243 -160 -263 -293 -4 -26 -7 -779 -7 -1673
1 -1289 4 -1634 14 -1670 30 -103 101 -186 201 -234 l65 -31 263 -3 c219 -3
272 -1 320 13 128 36 234 147 260 271 5 22 9 207 10 410 0 203 1 383 1 399 l1
30 1288 1 1287 0 65 31 c72 34 112 67 158 131 57 80 64 128 64 407 0 225 -2
256 -20 307 -45 128 -145 218 -273 247 -24 5 -561 10 -1297 10 -692 0 -1261 1
-1267 1 -8 0 -12 376 -6 511 1 14 119 16 1274 16 1156 0 1277 1 1329 17 52 15
135 68 166 105 48 59 80 129 89 196 10 66 4 482 -7 530 -30 132 -123 227 -269
274 -52 17 -3392 14 -3446 -3z"/>
<path d="M6759 10920 c-134 -25 -260 -153 -284 -290 -4 -19 -7 -768 -7 -1665
0 -1250 3 -1640 12 -1675 35 -131 134 -231 260 -263 83 -22 1474 -23 1556 -1
130 34 219 121 264 257 9 30 12 402 12 1687 0 1542 -1 1652 -17 1702 -34 101
-109 183 -211 230 l-49 23 -750 1 c-412 1 -766 -2 -786 -6z m1416 -356 c57
-26 84 -56 112 -121 14 -34 16 -175 15 -1483 0 -1286 -2 -1449 -16 -1481 -23
-55 -61 -94 -113 -120 l-48 -23 -590 -1 c-324 0 -607 3 -629 7 -61 13 -121 61
-150 120 l-26 52 0 1448 c0 1599 -5 1485 63 1557 70 73 41 71 720 71 l608 0
54 -26z"/>
<path d="M7083 10334 c-27 -27 -30 -78 -7 -109 14 -19 28 -20 447 -23 317 -2
438 0 454 9 28 15 45 62 34 92 -20 53 -12 52 -474 53 l-431 1 -23 -23z"/>
<path d="M7446 7895 c-106 -56 -116 -205 -17 -271 68 -45 150 -34 205 26 20
22 37 46 37 53 11 100 -14 157 -83 193 -35 18 -106 18 -142 -1z"/>
<path d="M9967 10896 c-76 -22 -120 -57 -303 -241 -213 -214 -229 -241 -229
-390 0 -169 -28 -134 612 -773 l553 -554 -527 -526 c-607 -608 -588 -584 -588
-747 0 -141 24 -182 232 -390 195 -195 212 -209 289 -237 105 -37 225 -23 319
38 28 17 279 262 560 543 280 281 513 511 516 511 4 0 244 -236 533 -525 443
-443 534 -530 579 -551 76 -34 158 -45 237 -30 89 17 136 51 308 223 93 92
183 188 200 211 52 73 76 191 57 286 -20 99 -39 121 -582 665 -288 288 -523
527 -523 530 0 3 241 247 536 541 294 294 548 553 563 575 80 115 87 260 19
386 -21 41 -80 107 -207 233 -218 215 -245 231 -391 231 -170 0 -139 25 -776
-613 l-552 -552 -553 553 c-626 625 -605 608 -753 614 -48 1 -101 -3 -129 -11z"/>
<path d="M7427 6436 c-104 -38 -139 -141 -83 -242 l27 -49 -24 -20 c-73 -61
-96 -158 -57 -236 28 -53 51 -75 108 -101 77 -35 188 -16 251 43 17 16 20 15
59 -21 43 -39 85 -47 116 -21 32 27 26 52 -23 105 l-48 51 19 31 c10 18 21 59
24 91 l6 60 -32 13 c-48 20 -82 -1 -93 -58 -4 -23 -11 -42 -15 -42 -4 0 -26
19 -49 43 l-41 43 26 18 c15 10 40 36 56 58 25 34 28 46 24 92 -5 63 -35 109
-86 135 -46 22 -115 25 -165 7z m121 -128 c6 -6 12 -15 12 -20 0 -13 -62 -68
-77 -68 -14 0 -43 50 -43 74 0 30 75 40 108 14z m3 -343 c31 -33 27 -45 -22
-65 -43 -18 -104 1 -124 40 -21 40 -20 46 18 85 l32 34 35 -32 c19 -18 46 -45
61 -62z"/>
<path d="M1524 6205 c-57 -39 -51 -131 9 -157 48 -22 4905 -20 4931 1 57 48
52 138 -10 161 -16 6 -945 10 -2467 10 -2125 0 -2445 -2 -2463 -15z"/>
<path d="M8654 6202 c-49 -39 -52 -97 -8 -142 l24 -25 2308 -1 c1845 0 2312 2
2333 12 55 27 62 115 12 154 -26 20 -36 20 -2337 20 -2175 0 -2312 -1 -2332
-18z"/>
<path d="M6300 5304 c-92 -14 -167 -28 -180 -34 -176 -81 -255 -137 -331 -233
-102 -132 -151 -271 -150 -427 3 -308 217 -572 531 -657 99 -27 264 -24 360 6
205 63 358 189 444 367 129 264 75 557 -143 775 -133 133 -269 191 -471 203
-25 1 -52 1 -60 0z m177 -295 c143 -46 253 -168 283 -313 40 -195 -82 -400
-280 -471 -55 -20 -173 -27 -230 -14 -158 36 -281 160 -324 325 -65 253 172
518 444 496 25 -2 73 -12 107 -23z"/>
<path d="M12727 5304 c-1 -1 -33 -4 -71 -8 -192 -18 -368 -135 -411 -273 -47
-149 -14 -294 90 -399 88 -88 215 -131 410 -139 152 -6 215 -15 270 -40 61
-27 76 -44 80 -92 3 -32 -1 -42 -34 -73 -56 -53 -136 -74 -281 -74 -134 0
-224 34 -367 139 -35 26 -97 22 -138 -9 -48 -37 -68 -71 -67 -112 3 -64 19
-84 138 -163 137 -91 290 -133 469 -126 135 5 171 10 260 42 210 76 312 217
294 408 -12 125 -78 225 -188 284 -110 58 -200 77 -406 86 -202 8 -275 45
-275 137 0 88 106 140 279 140 108 -1 188 -22 230 -61 60 -55 69 -62 98 -70
36 -10 127 18 149 46 27 35 36 90 20 125 -47 108 -211 207 -371 225 -52 5
-174 11 -178 7z"/>
<path d="M1554 5284 c-17 -7 -39 -25 -50 -41 -17 -27 -18 -59 -19 -623 0 -583
0 -595 20 -625 12 -16 33 -36 48 -43 39 -19 110 -17 145 3 53 31 56 46 59 230
1 94 2 175 2 181 1 7 66 11 197 11 108 1 217 4 242 8 26 4 48 7 49 6 12 -4
126 57 162 87 57 45 74 65 107 120 64 104 83 221 57 336 -37 162 -170 300
-333 347 -65 19 -643 21 -686 3z m653 -284 c24 -13 55 -41 70 -63 23 -33 28
-51 28 -102 0 -50 -5 -69 -28 -103 -48 -74 -73 -80 -310 -82 -162 0 -207 2
-208 12 -1 19 -1 319 0 343 1 20 7 21 204 20 194 -1 204 -2 244 -25z"/>
<path d="M3547 5281 c-64 -32 -62 -16 -62 -668 0 -583 1 -592 21 -620 55 -74
186 -73 235 1 11 16 14 72 15 252 1 127 4 235 7 240 3 5 142 9 314 9 l308 0 6
-245 c3 -135 6 -245 7 -246 1 -1 10 -10 20 -21 27 -31 60 -45 107 -45 53 0 91
18 119 55 21 28 21 36 21 621 0 491 -3 598 -14 620 -41 75 -169 87 -232 20
-24 -25 -24 -30 -29 -257 l-5 -232 -313 0 c-171 0 -312 2 -313 5 0 3 -1 102
-1 220 -1 232 -5 254 -55 287 -34 22 -115 24 -156 4z"/>
<path d="M8075 5273 c-18 -12 -37 -35 -43 -50 -5 -17 -9 -258 -8 -618 1 -648
-2 -620 62 -650 38 -18 113 -20 147 -4 14 6 34 27 45 48 19 34 20 54 20 386 0
193 1 365 1 383 l1 32 38 -42 c81 -92 108 -122 122 -138 8 -9 46 -52 85 -96
38 -43 88 -99 111 -124 23 -25 83 -93 135 -151 52 -58 126 -141 164 -184 115
-130 117 -131 211 -123 63 5 99 32 110 82 4 17 7 291 7 608 0 632 3 604 -59
645 -35 22 -123 23 -157 0 -59 -39 -58 -30 -59 -457 -1 -215 -4 -389 -8 -388
-3 2 -50 53 -104 113 -55 61 -115 128 -135 150 -20 22 -70 78 -111 125 -41 47
-82 92 -90 100 -8 8 -47 51 -85 95 -39 44 -74 85 -80 91 -5 6 -43 47 -84 92
-76 84 -111 105 -170 100 -18 -1 -48 -12 -66 -25z"/>
<path d="M10361 5279 c-63 -38 -61 -20 -61 -659 0 -518 2 -586 16 -616 32 -68
30 -67 516 -67 413 0 438 1 470 20 18 10 40 34 49 52 30 64 1 163 -56 189 -18
9 -128 12 -369 12 -266 0 -345 3 -348 13 -4 10 -3 252 1 267 0 3 128 5 284 5
155 -1 294 3 308 7 49 16 72 53 77 118 5 66 -8 97 -55 127 -24 16 -57 18 -322
18 l-296 0 0 123 c-1 75 3 126 10 130 5 4 159 7 340 7 302 1 333 2 361 19 41
24 56 51 60 105 3 57 -15 101 -52 126 -28 19 -50 20 -466 21 -407 1 -439 0
-467 -17z"/>
</g>
</svg>
